<svg xmlns="http://www.w3.org/2000/svg" width="529" viewBox="0 0 396.75 396.75" height="529" version="1.0">
    <path d="M179.157 165.71a.677.677 0 0 0-.996.11c-1.074 1.297-2.11 1.926-3.144 1.887-2.516-.074-5.29-3.992-8.246-8.098-2.106-2.992-4.438-6.285-7.098-8.797a23.42 23.42 0 0 0 5.84-2.922c3.515-2.402 6.656-5.843 8.914-9.652 3.398-5.805 4.176-11.57 2.031-15.047-1.144-1.886-3.695-4.031-9.316-3.625-8.504.594-18.375 6.176-21.926 12.461-1.813 3.145-1.961 6.324-.52 9.242a.713.713 0 0 0 .961.297c.336-.148.485-.59.297-.96-1.258-2.477-1.07-5.141.48-7.876 3.329-5.804 12.833-11.203 20.817-11.757 3.883-.258 6.621.738 7.988 2.957 1.887 3.03 1.11 8.246-2.035 13.605-4.215 7.102-9.87 10.762-14.824 12.168-.594-.48-1.184-.926-1.813-1.297a16.112 16.112 0 0 0-1.886-1.035c.37-1.402.703-2.773 1-4.066 1.664-6.657 3.18-12.942 4.027-16.75.074-.368-.148-.739-.555-.848a.705.705 0 0 0-.812.555c-.852 3.804-2.402 10.054-4.031 16.71-.332 1.333-.63 2.626-.961 3.844-2.106-.773-3.844-.773-4.918.04-.664.554-.922 1.367-.664 2.179.37 1.11 1.699 2.332 4.398 2.664-5.953 24.586-5.84 26.14-4.695 26.547a.977.977 0 0 0 .297.035c.703 0 1.257-.96 2.218-3.066.149-.332 0-.778-.37-.926a.745.745 0 0 0-.962.371c-.074.184-.183.406-.257.59.628-4.25 2.957-14.2 5.214-23.477 1.477.035 2.957-.148 4.473-.48 2.809 2.437 5.285 5.953 7.543 9.133 3.29 4.62 6.102 8.613 9.356 8.722h.109c1.48 0 2.848-.812 4.18-2.437.257-.297.183-.742-.114-1Zm-30.023-17.116c-.074-.262-.035-.446.187-.594.293-.258.7-.367 1.18-.367.742 0 1.629.257 2.516.59-.184.703-.332 1.406-.516 2.07-2-.223-3.144-1-3.367-1.7Zm4.844 1.773c.113-.52.222-1.035.37-1.555.555.262 1.071.555 1.477.817.262.148.52.293.742.48-.886.149-1.777.219-2.59.258Zm0 0" fill="#2e3859"/>
    <path d="M191.397 148.52c-.336-.149-.778 0-.926.331-2.809 5.73-4.918 7.543-5.918 7.356-.406-.07-1.734-.848-2.07-7.32a.676.676 0 0 0-.48-.63c-.294-.074-.63 0-.774.262a9.193 9.193 0 0 0-.668.887c-.922 1.258-2.145 2.957-3.621 4.547-.223.258-.41.406-.52.48-.258-1.293 1.11-6.25 3.29-7.8.628-.446 1.48-.778 2.628.554.258.297.7.332.996.075.297-.223.332-.704.11-1-1.403-1.625-2.735-1.59-3.621-1.293-2.848 1-4.77 6.468-4.844 8.984-.04 1.035.258 1.703.851 1.922.922.371 1.848-.629 2.145-.961a42.752 42.752 0 0 0 3.215-3.992c.406 4.215 1.406 6.324 3.07 6.691.148 0 .293.04.441.04 2.516 0 5.215-4.403 7.028-8.173.183-.37.035-.777-.332-.96Zm0 0" fill="#2e3859"/>
    <path d="M205.483 125.851a1.058 1.058 0 0 0-.926-.218c-1.59.515-4.438 8.242-7.172 20.96-.074.223-.188.41-.297.63-.183-1.442-1.144-1.848-1.48-1.958-1.59-.48-4.102.961-5.84 4.657-1.332 2.773-1.59 6.398.074 7.36.813.48 2.219.405 4.25-2.552.89-1.257 1.664-2.476 2.406-3.66a194.92 194.92 0 0 0-1.183 6.656c-.703 4.141-1.223 7.614-1.516 10.13-.594 4.917-.297 5.581.441 5.804.075.04.188.04.262.04.664 0 1.106-.852 1.328-1.407a.659.659 0 0 0-.332-.926.67.67 0 0 0-.59-.035c.075-1.59.442-5.215 1.809-13.348a255.048 255.048 0 0 1 2.035-10.87c2.774-5.25 4.18-9.688 5.324-13.2.149-.445.297-.852.407-1.223 1.96-5.879 1.222-6.578 1-6.84Zm-12.575 28.067c-1.402 2.031-2.18 2.219-2.363 2.144-.555-.336-.742-2.886.516-5.547 1.258-2.664 2.957-3.921 3.883-3.921.109 0 .183 0 .257.039.594.148.48 1.218.446 1.515a.727.727 0 0 0 .48.778 69.502 69.502 0 0 1-3.219 4.992Zm10.243-21.668c-.145.371-.293.777-.407 1.219-.664 1.996-1.402 4.254-2.402 6.804 1.555-6.136 2.957-9.984 3.844-11.906-.145.887-.48 2.145-1.035 3.883Zm0 0" fill="#2e3859"/>
    <path d="M213.762 148.48a.708.708 0 0 0-.996.188c-2.773 3.879-5.031 6.32-7.246 7.91-1.11.777-2.184.926-2.887.406-.441-.332-1.812-1.812-.222-6.988 3.59-2.957 5.546-5.766 5.03-7.246a1.21 1.21 0 0 0-1.109-.738c-1.48.035-3.734 2.586-5.214 7.355-1.813 5.879-.332 8.023.703 8.766.515.406 1.11.59 1.773.59.852 0 1.813-.333 2.738-.997 2.368-1.703 4.696-4.214 7.579-8.246.222-.332.148-.777-.149-1Zm-7.726-4.918c-.149.594-.778 1.778-2.516 3.551.96-2.144 2-3.18 2.516-3.55Zm0 0" fill="#2e3859"/>
    <path d="M227.924 148.406c-.332-.183-.778-.074-.961.262-3.145 5.027-8.801 9.277-10.907 8.87-.332-.034-.777-.222-1-1.07.114-.148.297-.296.48-.445.595-.515 1.442-1.258 2.184-2.18 1.184-1.554 1.7-3.44 1.254-4.511-.218-.445-.59-.738-1.07-.777-1.035-.075-2.219.96-3.625 3.144a26.944 26.944 0 0 0-1.848 3.402 2076.74 2076.74 0 0 1 3.625-15.937c4.953-8.875 7.43-15.531 6.395-16.973a.965.965 0 0 0-.961-.367c-1.59.293-4.066 5.691-5.73 12.531a237.355 237.355 0 0 0-1.036 4.328c-.035.036-.035.11-.035.184-2.11 8.91-5.66 24.664-5.695 25.883 0 .371.258.664.59.703.039.035.074.035.148.035.297 0 .555-.219.668-.515l.145-.52c1.222-3.844 2.773-8.688 4.918-11.98 1.257-1.958 1.996-2.403 2.218-2.477.114.406-.074 1.664-1.109 2.996-.629.777-1.402 1.48-1.996 1.961-.738.664-1.07.96-.996 1.477.367 1.812 1.402 2.367 2.215 2.515.187.035.37.035.554.035 3.551 0 9.32-5.582 11.797-9.574.223-.332.11-.777-.222-1Zm-6.692-24.55c-.258 1.515-1.332 4.66-3.808 9.687 1.441-5.36 2.957-8.43 3.808-9.688ZM253.733 150.625c-.149-.258-.668-.848-1.926-.442-.406.145-.59.555-.442.922.11.371.516.555.887.446.035-.04.11-.04.149-.04-.149.372-.668 1.184-2.036 2.333-.554.515-1.218.96-1.957 1.402-.89-2.477-1.257-5.137-1.296-7.543 3.996-4.77 4.808-7.95 4.066-9.465-.332-.664-.996-.996-1.734-.887-1.297.184-2.887 1.774-3.403 4.844a27.512 27.512 0 0 0-.37 5.028 88.259 88.259 0 0 1-3.403 3.59c-3.66 3.585-4.844 5.988-3.547 7.355 1.402 1.515 5.543.668 8.945-.961.555 1.183 1.223 2.293 1.996 3.254a.673.673 0 0 0 .555.258.701.701 0 0 0 .445-.149c.297-.258.371-.699.11-.996-.739-.926-1.328-1.96-1.848-3.031.926-.52 1.738-1.035 2.367-1.59 2.106-1.813 2.957-3.367 2.442-4.328Zm-6.29-8.207c.372-2.367 1.52-3.586 2.184-3.66h.074c.11 0 .184.035.223.109.293.629.074 2.7-2.812 6.547.074-1.149.187-2.145.332-2.996Zm-7.687 14.789c-.336-.371 0-1.961 3.512-5.399a50.808 50.808 0 0 0 2.476-2.55c.184 2.254.63 4.547 1.407 6.617-3.106 1.515-6.621 2.183-7.395 1.332ZM183.415 176.772c-2.11-1.145-9.91.668-15.937 2.515-1.035.332-2.035.664-3.032 1 .11-.594.223-1.148.332-1.629a.725.725 0 0 0-.554-.851c-.406-.07-.778.187-.852.554-.148.743-.293 1.555-.48 2.48-7.246 2.587-13.977 5.806-18.93 9.134a.675.675 0 0 0-.184.96c.11.22.368.333.59.333.114 0 .258-.04.371-.114 4.696-3.14 10.98-6.21 17.82-8.687-.777 3.625-1.812 8.32-2.921 13.496-.961 4.438-1.996 9.207-2.992 13.828-3.625 1.219-7.434 3.145-10.946 6.063a.707.707 0 0 0-.074 1c.149.148.332.257.555.257.148 0 .297-.074.445-.183 3.106-2.55 6.469-4.363 9.684-5.508-.813 3.805-1.59 7.469-2.215 10.758-.852 4.215-1.406 7.36-1.703 9.574-.555 3.7-.371 4.477.37 4.7a.654.654 0 0 0 .259.034c.703 0 1.218-.925 1.996-2.808.148-.371 0-.777-.371-.926-.368-.148-.774 0-.922.371-.074.11-.114.223-.149.332.446-3.992 2.293-13.164 4.29-22.59 3.253-1 6.285-1.406 8.613-1.37.37.038.703-.294.703-.704.039-.367-.293-.7-.664-.7-2.258-.038-5.176.294-8.32 1.185.96-4.512 1.96-9.024 2.847-13.016a1608.831 1608.831 0 0 0 3.07-14.348c1.368-.48 2.774-.96 4.176-1.406 8.543-2.586 13.348-2.918 14.348-2.55-.188.296-1 1.183-4.14 2.847-.337.187-.481.629-.298.96.184.372.63.481.961.298 4.399-2.328 4.992-3.438 4.992-4.215 0-.258-.113-.738-.738-1.074Zm0 0" fill="#2e3859"/>
    <path d="M181.453 180.545a1.118 1.118 0 0 0-1-.445c-2.105.37-4.363 8.246-4.992 10.648-1.847 7.063-4.176 17.082-6.062 26.067-.887 4.253-1.59 7.84-2.032 10.43-.742 4.363-.628 4.917.07 5.1.075.036.15.036.223.036.668 0 1-.887 1.332-1.848.11-.37-.074-.777-.445-.886-.035-.036-.074-.036-.11-.036.778-5.328 3.958-20.82 7.212-33.796 0-.036.035-.075.074-.11 4.805-7.617 6.691-13.68 5.73-15.16Zm-4.546 10.277c1.402-5.21 2.66-7.726 3.324-8.761-.145 1.367-.961 4.324-3.324 8.761ZM189.585 207.166a.703.703 0 0 0-.996.11c-1.555 2-4.106 3.66-6.063 3.292.036-.257.075-.519.075-.777.257-4.18-1.04-5.027-1.813-5.176-.887-.183-1.812.48-2.258 1.59a.574.574 0 0 0-.59.074c-1.48.922-2.699 3.29-2.035 5.84.446 1.516 1.48 2.48 2.848 2.48 1.293 0 2.664-.964 3.363-2.663 2.59.554 5.696-1.368 7.582-3.77a.704.704 0 0 0-.113-1Zm-10.793 6.027h-.039c-.926-.039-1.332-.925-1.441-1.44-.372-1.259-.075-2.997.96-3.958.075 1.258.778 2.625 2.551 3.586-.515 1.184-1.406 1.812-2.031 1.812Zm2.402-3.476c-.039.074-.039.148-.039.223-1.402-.926-1.625-2.11-1.367-3.032.184-.593.555-.886.738-.886.188.035.817.738.668 3.695Zm0 0" fill="#2e3859"/>
    <path d="M204.264 206.834c-.367-.187-.813-.039-.961.332-4.25 8.95-8.281 13.531-9.168 13.383-.074-.035-1.367-1.293 2.809-14.121.113-.332.37-1.11-.223-1.516-.555-.445-1.184-.039-2.219.664-1.11.703-2.625 1.7-3.804 1.555 3.77-6.508 3.398-7.953 2.55-8.504-1.332-.777-3.254 1.477-4.144 2.77-1.809 2.812-1.774 5.363.148 6.656 1.961 1.367 4.512-.297 6.028-1.293l.074-.074c-1.442 4.547-2.367 8.132-2.7 10.613-.406 2.734-.109 4.176.926 4.582.184.039.332.074.516.074 2.96 0 8.098-9.094 10.5-14.16.148-.371 0-.812-.332-.96Zm-14.938-2.55c.52-1.997 2.258-3.848 3.032-4.29-.07.59-.48 2.254-2.844 6.36-.262-.407-.445-1.036-.188-2.07Zm0 0" fill="#2e3859"/>
    <path d="M215.282 206.943a.708.708 0 0 0-.996.188c-2.774 3.879-5.032 6.32-7.246 7.91-1.11.777-2.184.926-2.887.406-.442-.332-1.813-1.812-.223-6.988 3.59-2.957 5.547-5.766 5.031-7.246a1.21 1.21 0 0 0-1.109-.738c-1.48.035-3.734 2.586-5.215 7.355-1.812 5.88-.332 8.024.703 8.766.516.406 1.11.59 1.774.59.851 0 1.812-.332 2.738-.996 2.367-1.704 4.695-4.215 7.578-8.247.223-.332.149-.777-.148-1Zm-7.727-4.917c-.148.593-.777 1.777-2.515 3.55.96-2.144 2-3.18 2.515-3.55Zm0 0" fill="#2e3859"/>
    <path d="M228.408 206.943a.695.695 0 0 0-.961.297c-.887 1.516-3.219 5.621-4.547 5.473-.262-.039-1-.406-1.738-2.996-.52-1.813-1.219-3.512-2.59-3.586-.996-.074-2.105.703-3.809 3.883.446-1.59.926-3.18 1.297-4.473.149-.484.258-.89.367-1.297a.72.72 0 0 0-.48-.886.717.717 0 0 0-.887.52c-.11.366-.222.812-.37 1.253-.962 3.293-2.403 8.285-2.77 11.316a.683.683 0 0 0 .515.739c.075.039.11.039.184.039a.738.738 0 0 0 .668-.446c3.473-8.652 4.879-9.242 5.21-9.242.075 0 .595.149 1.298 2.586.738 2.551 1.699 3.848 2.957 3.996 1.886.219 3.586-2.11 5.914-6.176.222-.37.074-.777-.258-1Zm0 0" fill="#2e3859"/>
    <path d="M257.951 193.373c-.48-.664-2.625-1.07-25.586-.555.738-2.992 1.402-5.69 1.996-7.875a.711.711 0 0 0-.48-.886.726.726 0 0 0-.887.48c-.629 2.332-1.332 5.14-2.11 8.32-2.03.036-4.25.075-6.656.149-3.289.074-5.879.148-6.875.148-.406 0-.742.332-.742.7 0 .41.336.742.742.742 1.035-.04 3.621-.074 6.914-.188 1.739-.035 3.883-.07 6.286-.144a836.9 836.9 0 0 0-5.028 22.664c-1.183 5.765-2.144 10.758-2.773 14.418-.332 1.926-.555 3.441-.668 4.476-.149 1.403-.219 2.22.48 2.477.114 0 .188.035.297.035.629 0 .961-.887 1.258-1.7a.712.712 0 0 0-.406-.925c-.075 0-.114-.035-.184-.035.367-2.883 1.477-9.356 3.621-19.559a674.89 674.89 0 0 1 4.883-21.89c10.168-.223 23.367-.407 24.883.113.258.219.59.219.887.035.296-.222.37-.664.148-1Zm0 0" fill="#2e3859"/>
    <path d="M242.458 206.795c-.332-.219-.738-.11-.96.223-2.477 3.992-6.622 7.765-7.876 7.246-.148-.074-1.332-.774.293-7.024.074-.406-.144-.777-.515-.886-.407-.075-.778.148-.887.515-1.332 5.215-1.149 7.989.516 8.692.257.109.519.148.777.148 2.773 0 7.023-4.957 8.91-7.953.184-.332.074-.773-.258-.961Zm-8.726-2.992c1.886.11 1.847-2.258.332-1.738-.778.222-1.774 1.664-.332 1.738Zm0 0" fill="#2e3859"/>
    <path d="M256.472 206.983c-.335-.149-.777 0-.925.332-2.809 5.73-4.918 7.543-5.918 7.355-.407-.07-1.735-.848-2.07-7.32a.676.676 0 0 0-.481-.63c-.293-.073-.629 0-.773.263a9.193 9.193 0 0 0-.668.886c-.922 1.258-2.145 2.957-3.622 4.547-.222.258-.41.406-.52.48-.257-1.292 1.11-6.25 3.29-7.8.629-.445 1.48-.778 2.629.555.258.296.7.332.996.074.297-.223.332-.703.11-1-1.403-1.625-2.735-1.59-3.622-1.293-2.847 1-4.77 6.469-4.843 8.984-.04 1.035.257 1.703.851 1.922.922.371 1.848-.629 2.145-.96a42.752 42.752 0 0 0 3.214-3.993c.407 4.215 1.407 6.324 3.07 6.691.15 0 .294.04.442.04 2.516 0 5.215-4.403 7.028-8.173.183-.37.035-.777-.333-.96ZM132.772 264.858c0 .68-.43 1.015-1.282 1.015-.093 0-.234-.008-.422-.015h-.39c-.262 0-.656.004-1.188.015-.523.008-.914.016-1.172.016-.835 0-1.25-.082-1.25-.25 0-.625.329-1.258.985-1.906.625-.551 1.242-1.098 1.86-1.641.655-.656.984-1.297.984-1.922 0-.332-.086-.617-.25-.86a.96.96 0 0 0-.797-.39c-.25 0-.621.2-1.11.594-.48.387-.808.578-.984.578a.552.552 0 0 1-.39-.156.498.498 0 0 1-.157-.375c0-.395.395-.785 1.188-1.172.707-.344 1.289-.516 1.75-.516.625 0 1.144.11 1.562.328.531.282.797.703.797 1.266 0 .625-.273 1.266-.813 1.922-.261.312-.765.812-1.515 1.5-.555.48-.828.82-.828 1.015 0 .125.097.235.297.329.164.086.32.125.468.125.145 0 .36-.004.641-.016.281-.008.488-.016.625-.016.926 0 1.39.18 1.39.532ZM140.388 265.451c0 .375-.2.563-.594.563-.242 0-.601-.027-1.078-.078a9.787 9.787 0 0 0-1.062-.078c-.461 0-.825.007-1.094.03-.867.083-1.29.126-1.266.126-.273 0-.406-.16-.406-.485 0-.195.203-.382.61-.562.5-.227.78-.367.843-.422.375-.375.563-.906.563-1.594v-2.578c0-.656-.047-1.047-.141-1.172-.023-.039-.305-.144-.844-.312-.468-.145-.703-.348-.703-.61 0-.257.125-.39.375-.39.227 0 .57.023 1.031.062.457.043.805.063 1.047.063.219 0 .54-.02.969-.063.438-.039.766-.062.984-.062.207 0 .313.125.313.375 0 .156-.137.297-.406.422-.399.168-.649.304-.75.406-.274.23-.407.555-.407.969v2.531c0 1.086.047 1.7.141 1.844.102.156.457.312 1.063.468.539.149.812.329.812.547ZM163.835 262.858c0 1.093-.476 1.937-1.422 2.53-.804.5-1.78.75-2.937.75-.399 0-.828-.046-1.297-.14a6.731 6.731 0 0 1-1.406-.453c-.637-.289-.953-.61-.953-.953v-.906c0-.301.132-.453.406-.453.187 0 .305.074.36.218a9.4 9.4 0 0 1 .077.438c.133.5.52.883 1.157 1.14.5.211 1.05.313 1.656.313.719 0 1.348-.145 1.89-.438.665-.363 1-.867 1-1.515 0-.79-.57-1.477-1.703-2.063-1.062-.507-2.125-1.015-3.187-1.515-1.149-.696-1.719-1.57-1.719-2.625 0-1.051.438-1.89 1.313-2.516.77-.562 1.703-.844 2.797-.844.52 0 1.156.106 1.906.313.957.25 1.437.555 1.437.906v1.094c0 .305-.133.453-.39.453-.188 0-.305-.07-.344-.219a5.506 5.506 0 0 1-.11-.437 1.192 1.192 0 0 0-.25-.453c-.468-.582-1.218-.875-2.25-.875-.636 0-1.218.171-1.75.515-.617.399-.921.899-.921 1.5 0 .867.57 1.594 1.718 2.188 1.063.48 2.13.968 3.204 1.468 1.144.68 1.718 1.54 1.718 2.579ZM170.555 259.53c0 .636-.344 1.199-1.031 1.687-.637.437-1.282.656-1.938.656-.105 0-.258-.015-.453-.047-.2-.039-.352-.062-.453-.062-.606 0-.906.48-.906 1.437 0 .93.437 1.391 1.312 1.391.508 0 1.047-.211 1.61-.64.562-.426.82-.641.78-.641.384 0 .579.093.579.281 0 .074-.04.172-.11.297a3.778 3.778 0 0 1-1.312 1.437 3.333 3.333 0 0 1-1.813.532c-.78 0-1.37-.305-1.765-.922-.336-.508-.5-1.176-.5-2 0-1.29.375-2.43 1.125-3.422.8-1.094 1.828-1.64 3.078-1.64.469 0 .883.163 1.25.484.363.324.547.714.547 1.171Zm-1.297.406a.887.887 0 0 0-.297-.657.976.976 0 0 0-.687-.28c-.336 0-.668.183-1 .546-.325.356-.485.7-.485 1.031 0 .157.086.293.266.407.156.093.312.14.469.14.343 0 .707-.11 1.093-.328.426-.25.641-.535.641-.86ZM178.553 259.983c0 .418-.137 1.093-.406 2.03-.18.595-.5 1.15-.969 1.657-.48.531-1.008.883-1.578 1.047-.211.062-.563.094-1.063.094s-.867.12-1.093.36c-.168.167-.352.515-.547 1.046-.7 1.812-1.047 3.113-1.047 3.906 0 .313.16.535.484.672.008.008.313.098.907.266.332.082.5.21.5.39 0 .258-.168.391-.5.391-.22 0-.54-.055-.954-.156-.406-.106-.718-.157-.937-.157-.148 0-.375.004-.688.016-.312.02-.546.031-.703.031-.593 0-.89-.132-.89-.39 0-.063.164-.157.484-.282.367-.136.621-.375.766-.718.148-.344.468-1.403.968-3.172.114-.45.618-2.3 1.516-5.563.352-1.32.531-2 .531-2.03 0-.102-.156-.188-.468-.25-.313-.063-.47-.177-.47-.345 0-.05.165-.172.5-.359.352-.207.567-.379.641-.516a52.3 52.3 0 0 1 .25-.922c.094-.332.336-.5.735-.5.476 0 .719.153.719.454 0 .086-.028.21-.079.375a1.655 1.655 0 0 0-.062.375c0 .242.187.359.562.359.145 0 .352-.035.625-.11.282-.07.5-.109.657-.109.488 0 .89.235 1.203.703.27.418.406.887.406 1.407Zm-1.25 0c0-.407-.137-.739-.406-1a1.422 1.422 0 0 0-1.016-.391c-.449 0-.828.258-1.14.766-.18.28-.391.902-.641 1.859-.25.96-.375 1.617-.375 1.969 0 .531.312.797.937.797.676 0 1.301-.508 1.875-1.532.508-.894.766-1.718.766-2.468ZM184.763 258.139c0 .5-.36.75-1.079.75a9.54 9.54 0 0 1-.5-.016 6.357 6.357 0 0 0-.484-.031c-.344 0-.59.14-.734.422-.043.086-.133.37-.266.86l-.969 3.687a.804.804 0 0 0-.015.172c0 .367.164.546.5.546.3 0 .601-.234.906-.703.3-.476.547-.718.734-.718.29 0 .438.132.438.39 0 .293-.188.715-.563 1.266-.5.73-1.199 1.094-2.093 1.094-.336 0-.633-.102-.891-.313-.305-.207-.453-.473-.453-.797 0-.539.394-2.101 1.187-4.687.157-.5.235-.805.235-.922 0-.133-.137-.211-.407-.235.188.012.004.016-.546.016-.25 0-.375-.094-.375-.281 0-.352.144-.578.437-.672.145-.05.441-.078.89-.078.333 0 .583-.242.75-.735.196-.57.337-.89.423-.953.125-.07.332-.109.625-.109.27 0 .406.086.406.25 0 .137-.059.328-.172.578-.106.25-.156.445-.156.578 0 .305.172.453.515.453.164 0 .407-.007.719-.03a8.2 8.2 0 0 1 .734-.048c.133 0 .204.09.204.266ZM191.161 259.53c0 .636-.344 1.199-1.031 1.687-.637.437-1.281.656-1.938.656-.105 0-.257-.015-.453-.047-.199-.039-.351-.062-.453-.062-.605 0-.906.48-.906 1.437 0 .93.437 1.391 1.312 1.391.508 0 1.047-.211 1.61-.64.562-.426.82-.641.781-.641.383 0 .578.093.578.281 0 .074-.039.172-.11.297a3.778 3.778 0 0 1-1.312 1.437 3.333 3.333 0 0 1-1.812.532c-.781 0-1.371-.305-1.766-.922-.336-.508-.5-1.176-.5-2 0-1.29.375-2.43 1.125-3.422.801-1.094 1.828-1.64 3.078-1.64.47 0 .883.163 1.25.484.364.324.547.714.547 1.171Zm-1.297.406a.887.887 0 0 0-.297-.657.976.976 0 0 0-.687-.28c-.336 0-.668.183-1 .546-.324.356-.484.7-.484 1.031 0 .157.086.293.265.407.156.093.313.14.469.14.344 0 .707-.11 1.094-.328.425-.25.64-.535.64-.86ZM204.144 259.076c0 .637-.367 1.559-1.094 2.766-.719 1.21-1.078 2.008-1.078 2.39 0 .282.117.422.36.422.1 0 .312-.109.624-.328.313-.226.516-.343.61-.343.207 0 .312.093.312.28 0 .294-.32.638-.953 1.032-.605.375-1.07.563-1.39.563-.399 0-.684-.055-.86-.172-.219-.157-.328-.426-.328-.813 0-.281.379-1.078 1.14-2.39.758-1.32 1.141-2.196 1.141-2.625 0-.258-.168-.391-.5-.391-.23 0-.715.418-1.453 1.25-.617.687-1.059 1.234-1.328 1.64-.399.669-.793 1.34-1.188 2.016-.605.918-1.152 1.375-1.64 1.375-.356 0-.531-.207-.531-.625 0-.582.312-1.472.937-2.672.633-1.195.953-2.093.953-2.687 0-.352-.12-.531-.36-.531-.554 0-1.386.859-2.5 2.578-.698 1.148-1.39 2.293-2.077 3.437-.274.406-.59.61-.953.61-.356 0-.532-.211-.532-.641 0-.219.149-.676.453-1.375l.907-2.078c.3-.695.453-1.285.453-1.766 0-.539-.164-.8-.485-.781-.187.21-.496.496-.921.86a1.658 1.658 0 0 1-.297.03c-.18 0-.266-.062-.266-.187 0-.312.363-.738 1.094-1.281.707-.508 1.234-.766 1.578-.766.406 0 .61.172.61.516 0 .293-.102.719-.298 1.281-.187.555-.28.969-.28 1.25 0 .293.093.434.28.422.457-.469 1.145-1.16 2.063-2.078.945-.926 1.77-1.39 2.469-1.39a.72.72 0 0 1 .406.14c.133.086.203.187.203.312 0 .243-.137.649-.406 1.22-.274.562-.406 1.026-.406 1.39 0 .093.035.195.109.297.07.093.156.14.25.14.289 0 .566-.172.828-.515.07-.114.188-.282.344-.5.351-.5.82-1.008 1.406-1.532.727-.632 1.305-.953 1.734-.953.29 0 .508.137.657.406.132.23.203.497.203.797ZM213.264 260.31c0 1.606-.672 2.95-2.016 4.032-1.261 1.012-2.714 1.516-4.359 1.516h-.625c-.742 0-1.11-.485-1.11-1.454 0-.726.208-1.835.626-3.328l1.547-5.593c.488-1.688.734-2.852.734-3.5 0-.395-.164-.727-.484-1-.325-.282-.485-.477-.485-.594 0-.207.192-.38.578-.516.313-.101.598-.156.86-.156.925 0 1.39.367 1.39 1.094 0 .21-.058.476-.172.797-.117.25-.226.507-.328.765-.148.418-.48 1.621-1 3.61-.531 2.054-.797 3.195-.797 3.421 0 .188.145.282.438.282.238 0 .754-.301 1.547-.907.8-.601 1.398-.906 1.797-.906 1.238 0 1.859.813 1.859 2.438Zm-1.375.298c0-.938-.262-1.407-.781-1.407-.2 0-.45.07-.75.203-1.137.512-1.961 1.07-2.469 1.672-.555.637-.953 1.543-1.203 2.72a.816.816 0 0 0-.031.218c0 .523.257.781.78.781.407 0 .9-.117 1.485-.36a5.063 5.063 0 0 0 2.063-1.484c.601-.726.906-1.507.906-2.343ZM220.537 259.53c0 .636-.344 1.199-1.032 1.687-.636.437-1.28.656-1.937.656-.106 0-.258-.015-.453-.047-.2-.039-.352-.062-.453-.062-.606 0-.907.48-.907 1.437 0 .93.438 1.391 1.313 1.391.508 0 1.047-.211 1.61-.64.562-.426.82-.641.78-.641.383 0 .579.093.579.281 0 .074-.04.172-.11.297a3.778 3.778 0 0 1-1.312 1.437 3.333 3.333 0 0 1-1.813.532c-.781 0-1.37-.305-1.765-.922-.336-.508-.5-1.176-.5-2 0-1.29.375-2.43 1.125-3.422.8-1.094 1.828-1.64 3.078-1.64.468 0 .882.163 1.25.484.363.324.547.714.547 1.171Zm-1.297.406a.887.887 0 0 0-.297-.657.976.976 0 0 0-.688-.28c-.336 0-.668.183-1 .546-.324.356-.484.7-.484 1.031 0 .157.086.293.266.407.156.093.312.14.468.14.344 0 .707-.11 1.094-.328.426-.25.64-.535.64-.86ZM227.675 258.576c0 .305-.074.606-.218.907-.18.375-.403.562-.672.562-.137 0-.29-.129-.453-.39-.168-.258-.32-.391-.453-.391-.387 0-1.012.726-1.875 2.172a8.259 8.259 0 0 0-.704 1.515l-.859 2.594c-.074.211-.312.313-.719.313a.6.6 0 0 1-.484-.25.953.953 0 0 1-.188-.563c0-.226.102-.629.313-1.203.25-.676.504-1.352.766-2.031.332-.938.5-1.602.5-2 0-.532-.11-.797-.329-.797a.728.728 0 0 0-.265.078.698.698 0 0 1-.25.062c-.149 0-.219-.078-.219-.234 0-.258.156-.504.469-.734.289-.207.566-.313.828-.313.508 0 .766.23.766.688 0 .168-.043.406-.125.718-.086.313-.125.555-.125.72 0 .304.093.452.28.452.126 0 .352-.222.688-.672.438-.593.785-1.003 1.047-1.234.488-.445.985-.672 1.485-.672.53 0 .796.235.796.703ZM239.261 264.858c0 .68-.43 1.015-1.28 1.015-.095 0-.235-.008-.423-.015h-.39c-.262 0-.657.004-1.188.015-.523.008-.914.016-1.172.016-.836 0-1.25-.082-1.25-.25 0-.625.328-1.258.985-1.906.625-.551 1.242-1.098 1.859-1.641.656-.656.984-1.297.984-1.922 0-.332-.086-.617-.25-.86a.96.96 0 0 0-.797-.39c-.25 0-.62.2-1.109.594-.48.387-.808.578-.984.578a.552.552 0 0 1-.39-.156.498.498 0 0 1-.157-.375c0-.395.394-.785 1.187-1.172.707-.344 1.29-.516 1.75-.516.625 0 1.145.11 1.563.328.531.282.797.703.797 1.266 0 .625-.274 1.266-.813 1.922-.261.312-.765.812-1.515 1.5-.555.48-.829.82-.829 1.015 0 .125.098.235.297.329.164.086.32.125.47.125.144 0 .358-.004.64-.016.281-.008.488-.016.625-.016.926 0 1.39.18 1.39.532ZM249.065 261.842c0 1.117-.36 2.086-1.078 2.906-.75.844-1.672 1.266-2.765 1.266-1.211 0-2.149-.38-2.813-1.14-.637-.727-.953-1.704-.953-2.923 0-1.144.36-2.109 1.078-2.89.727-.79 1.656-1.188 2.781-1.188 1.04 0 1.93.403 2.672 1.203.719.793 1.078 1.715 1.078 2.766Zm-1.406.078c0-1.906-.789-2.86-2.36-2.86-.773 0-1.382.282-1.827.844-.407.524-.61 1.18-.61 1.97 0 1.968.805 2.952 2.422 2.952.75 0 1.344-.3 1.781-.906.395-.539.594-1.207.594-2ZM257.022 264.858c0 .68-.43 1.015-1.281 1.015-.094 0-.235-.008-.422-.015h-.39c-.263 0-.657.004-1.188.015-.524.008-.914.016-1.172.016-.836 0-1.25-.082-1.25-.25 0-.625.328-1.258.984-1.906.625-.551 1.242-1.098 1.86-1.641.656-.656.984-1.297.984-1.922 0-.332-.086-.617-.25-.86a.96.96 0 0 0-.797-.39c-.25 0-.621.2-1.11.594-.48.387-.808.578-.984.578a.552.552 0 0 1-.39-.156.498.498 0 0 1-.157-.375c0-.395.395-.785 1.188-1.172.707-.344 1.289-.516 1.75-.516.625 0 1.144.11 1.562.328.532.282.797.703.797 1.266 0 .625-.273 1.266-.812 1.922-.262.312-.766.812-1.516 1.5-.555.48-.828.82-.828 1.015 0 .125.098.235.297.329.164.086.32.125.469.125.144 0 .359-.004.64-.016.282-.008.489-.016.625-.016.926 0 1.39.18 1.39.532ZM269.154 265.03c0 .43-.152.64-.453.64-.274 0-.684-.016-1.235-.047a23.28 23.28 0 0 0-1.234-.047c-.293 0-.484.133-.578.391-.055.133-.078.383-.078.75 0 .3.015.758.047 1.375.039.613.062 1.07.062 1.375 0 .977-.293 1.469-.875 1.469-.48 0-.719-.324-.719-.969 0-.387.032-.965.094-1.734.07-.762.11-1.336.11-1.72 0-.675-.168-1.015-.5-1.015-.336 0-.844.024-1.532.063-.68.043-1.187.062-1.53.062-1.25 0-1.876-.242-1.876-.734 0-.29.16-.633.484-1.031.426-.438 1.063-1.102 1.907-2 .789-.852 2.004-2.082 3.64-3.688.22-.195.508-.297.875-.297.54 0 .813.168.813.5 0 .219-.117.547-.344.985-.219.43-.328.82-.328 1.171 0 .356-.008.887-.016 1.594-.011.711-.015 1.235-.015 1.578 0 .43.289.641.875.641.175 0 .43-.008.765-.031.344-.02.602-.032.782-.032.57 0 .859.25.859.75Zm-4.734-4.094c0-.551-.133-.828-.391-.828-.168 0-.734.527-1.703 1.578-.961 1.054-1.438 1.672-1.438 1.86 0 .335.102.558.313.671.164.086.687.125 1.562.125h.594c.363 0 .617-.066.766-.203.144-.133.218-.383.218-.75 0-.281.008-.692.032-1.235.031-.539.047-.945.047-1.218Zm0 0" fill="#2e3859"/>
    <g fill="#2e3859">
        <path d="M143.36 256.664c0 .367-.062.547-.187.547-.063 0-.219-.113-.469-.344-.242-.226-.453-.344-.64-.344a.63.63 0 0 0-.5.235.805.805 0 0 0-.203.547c0 .168.144.383.437.64.54.48.816.727.828.735.29.324.438.633.438.922 0 .367-.149.664-.438.89a1.499 1.499 0 0 1-.969.328c-.312 0-.609-.062-.89-.187-.344-.156-.516-.367-.516-.64 0-.415.063-.626.188-.626h.047c.425.406.796.61 1.109.61.375 0 .562-.164.562-.5 0-.125-.109-.297-.328-.516-.336-.332-.539-.54-.61-.625-.218-.29-.327-.586-.327-.89 0-.438.117-.813.36-1.126.257-.363.597-.547 1.015-.547.156 0 .344.047.562.141.25.094.406.203.469.328.04.086.063.227.063.422ZM147.592 255.945c0 .313-.23.47-.687.47-.074 0-.18-.005-.313-.017-.136-.007-.242-.015-.312-.015-.219 0-.375.09-.469.265-.023.063-.074.247-.156.547l-.625 2.328v.11c0 .23.101.344.312.344.188 0 .375-.145.563-.438.195-.3.36-.453.484-.453.176 0 .266.078.266.234 0 .188-.121.461-.36.813-.312.46-.75.687-1.312.687a.903.903 0 0 1-.562-.187c-.188-.145-.282-.317-.282-.516 0-.344.242-1.328.735-2.953.101-.32.156-.52.156-.594 0-.082-.086-.129-.25-.14h-.36c-.156 0-.234-.055-.234-.172 0-.227.094-.367.281-.422.094-.031.282-.047.563-.047.207 0 .363-.156.469-.469.125-.363.21-.562.265-.593.082-.051.211-.079.39-.079.177 0 .267.055.267.157 0 .086-.04.203-.11.36a1.08 1.08 0 0 0-.094.374c0 .188.11.281.329.281.101 0 .253-.004.453-.015.207-.02.359-.032.453-.032.094 0 .14.06.14.172Zm0 0"/>
    </g>
</svg>
